<?xml version="1.0" standalone="no"?>
<!DOCTYPE svg PUBLIC "-//W3C//DTD SVG 20010904//EN"
 "http://www.w3.org/TR/2001/REC-SVG-20010904/DTD/svg10.dtd">
<svg version="1.0" xmlns="http://www.w3.org/2000/svg"
 width="1280.000000pt" height="640.000000pt" viewBox="0 0 1280.000000 640.000000"
 preserveAspectRatio="xMidYMid meet">
<g transform="translate(0.000000,640.000000) scale(0.100000,-0.100000)"
fill="#000000" stroke="none">
<path d="M3410 5999 c-161 -132 -183 -152 -111 -104 30 19 57 33 60 29 10 -10
-237 -244 -494 -469 -404 -353 -373 -331 -487 -355 -46 -9 -66 -20 -103 -55
-25 -24 -45 -47 -45 -50 0 -15 -213 -255 -226 -255 -21 0 -224 -209 -299 -308
-94 -125 -139 -218 -143 -301 -2 -52 1 -73 17 -97 43 -70 213 -118 456 -130
l140 -7 135 -62 135 -61 68 -95 c87 -121 103 -149 87 -159 -6 -4 -53 -10 -103
-14 -387 -27 -691 -93 -889 -192 -86 -43 -208 -122 -208 -134 0 -9 17 -14 109
-37 19 -5 36 -14 38 -19 2 -6 -22 -31 -54 -54 -180 -135 -343 -337 -437 -542
-104 -225 -142 -519 -100 -769 97 -577 581 -1046 1194 -1156 127 -22 382 -22
505 0 219 40 396 110 573 227 539 357 765 968 577 1563 -14 43 -25 80 -25 83
0 15 52 -6 170 -69 154 -84 142 -65 155 -247 7 -95 7 -96 -85 -498 -51 -221
-91 -404 -89 -407 6 -5 397 -55 436 -55 20 0 49 15 89 45 32 24 64 45 71 45 6
0 24 -16 40 -35 l28 -35 450 -10 c248 -5 522 -10 610 -11 l160 -3 114 74 113
74 24 -29 c12 -16 30 -46 40 -67 l17 -38 123 0 c112 0 523 9 1172 26 150 4
242 10 240 16 -2 5 -116 78 -253 161 -146 89 -250 158 -250 167 0 25 104 59
400 131 154 38 332 83 395 100 179 49 173 50 195 -8 80 -212 241 -442 426
-609 211 -190 520 -343 804 -401 72 -14 137 -18 320 -18 217 1 237 2 350 29
155 36 235 65 376 137 210 107 360 220 512 389 439 486 515 1198 188 1758
-100 171 -257 345 -421 468 -50 37 -89 72 -87 78 2 6 97 77 213 157 115 81
215 157 222 170 22 40 10 158 -22 223 -44 89 -117 138 -315 207 l-92 32 -400
-267 -400 -266 -122 0 c-253 -1 -546 -63 -729 -156 -26 -13 -57 -24 -68 -24
-19 0 -308 217 -339 254 -10 12 7 33 95 118 l106 103 -36 5 c-20 3 -37 10 -38
15 -1 6 104 61 235 122 130 62 440 224 689 359 l452 246 353 291 c194 160 350
294 345 298 -4 4 -169 4 -367 0 l-360 -7 -180 -83 c-337 -156 -357 -154 -75 6
180 102 219 130 168 118 -13 -2 -320 -61 -683 -131 -363 -69 -665 -130 -671
-135 -6 -5 -16 -34 -23 -66 -15 -64 -44 -145 -91 -248 -24 -54 -30 -77 -25
-106 6 -34 3 -39 -37 -71 -76 -62 -87 -65 -328 -103 -129 -20 -384 -61 -567
-91 -282 -46 -351 -54 -462 -54 -100 0 -133 3 -137 13 -2 7 7 38 21 68 13 30
25 62 25 71 0 42 -200 348 -328 502 -210 251 -383 295 -754 191 -68 -19 -220
-53 -338 -75 -396 -74 -810 -174 -996 -242 -110 -39 -168 -90 -194 -170 -10
-31 -16 -66 -13 -78 l6 -22 -114 8 c-168 13 -390 9 -899 -14 -501 -24 -630
-32 -630 -40 0 -2 9 -20 21 -38 11 -19 16 -34 10 -34 -16 0 -81 60 -81 76 0
26 92 269 108 286 10 9 134 77 277 151 l260 134 165 32 c91 18 173 34 182 37
10 3 63 62 118 132 l102 127 140 76 c76 42 143 80 148 85 9 9 -575 284 -602
284 -7 0 -74 -50 -148 -111z m5004 -2200 c35 -28 33 -40 -6 -28 -38 10 -53 23
-44 38 10 16 20 14 50 -10z m-163 -133 c24 -8 117 -38 207 -66 89 -28 162 -57
162 -63 0 -7 -44 -54 -97 -104 l-98 -93 -606 -200 c-333 -110 -615 -200 -626
-200 -18 0 -21 9 -27 92 -3 50 -8 93 -11 96 -2 3 -43 -8 -90 -22 -91 -29 -140
-31 -140 -7 0 10 32 24 103 42 369 98 743 263 1024 449 73 49 138 89 144 89 6
1 30 -6 55 -13z m-2426 -246 c18 -19 17 -20 -3 -20 -31 0 -52 11 -52 26 0 21
34 17 55 -6z m4376 -192 c44 -23 95 -55 114 -70 l34 -29 -72 -139 -72 -139
-56 -26 c-31 -14 -63 -25 -72 -25 -8 0 -49 18 -90 40 -73 39 -204 80 -258 80
-33 0 -61 25 -57 51 4 25 395 298 427 299 13 0 59 -19 102 -42z m379 -330
c100 -141 166 -319 177 -475 3 -46 4 -83 2 -83 -2 0 -74 -16 -159 -35 l-155
-34 -65 32 -65 32 -17 81 c-19 97 -48 166 -94 231 -40 56 -40 63 -11 123 21
42 31 50 152 113 71 37 134 72 139 77 23 23 47 7 96 -62z m-8009 -33 c135 -23
269 -75 371 -143 44 -29 47 -48 14 -101 -13 -21 -40 -72 -60 -113 -33 -70 -39
-77 -85 -97 -62 -26 -61 -27 -118 7 -64 38 -147 69 -208 77 -28 4 -57 9 -66
11 -18 5 -59 74 -59 100 0 18 38 233 46 262 5 16 62 15 165 -3z m-308 -138
c60 -127 64 -144 47 -194 -10 -26 -20 -32 -91 -53 -86 -25 -163 -66 -239 -130
-26 -22 -58 -40 -71 -40 -16 0 -43 23 -88 72 -36 40 -85 92 -109 116 -48 49
-48 54 20 118 95 90 220 165 346 210 119 42 118 43 185 -99z m6622 -83 c99
-91 129 -114 145 -109 24 8 24 8 3 -69 -19 -71 -22 -222 -5 -280 12 -43 3 -71
-25 -80 -10 -2 -97 -6 -193 -8 l-175 -3 -12 45 c-15 58 -16 294 -2 360 10 46
17 55 76 100 36 28 72 50 79 50 7 0 29 -24 50 -52 21 -29 39 -55 41 -57 2 -2
5 -2 8 0 8 8 -53 129 -65 129 -17 0 -60 51 -60 71 0 11 2 19 5 19 3 0 62 -52
130 -116z m-830 -116 c-4 -24 -7 -121 -7 -216 1 -169 0 -173 -22 -187 -39 -26
-183 -74 -385 -130 -139 -37 -268 -82 -441 -153 l-245 -99 1 -39 c0 -21 4 -54
9 -72 l8 -32 -167 -80 c-176 -85 -266 -123 -273 -117 -5 6 92 74 237 167 172
110 169 104 61 111 -50 3 -94 9 -98 12 -12 12 26 33 326 184 l294 147 -24 19
c-13 10 -45 30 -71 43 -84 43 -82 43 222 74 113 12 211 23 218 25 7 3 12 24
12 60 l0 55 -50 0 c-50 0 -223 60 -236 82 -8 12 5 10 210 -39 82 -19 167 -35
189 -36 l40 -2 84 133 c89 140 121 166 108 90z m-836 -15 c43 -50 51 -73 26
-73 -22 0 -124 40 -131 51 -6 10 43 69 57 69 4 0 26 -21 48 -47z m-4034 -20
c49 -66 121 -215 140 -293 22 -84 31 -205 17 -214 -6 -3 -46 -13 -89 -20 -43
-8 -104 -21 -136 -28 -56 -12 -61 -11 -105 12 -45 24 -46 26 -59 93 -13 73
-48 159 -90 220 -24 34 -25 41 -14 76 6 22 19 49 29 61 19 24 227 137 254 139
10 1 33 -20 53 -46z m3995 -138 c339 -59 340 -64 10 -90 -232 -18 -300 -19
-300 -4 0 20 103 119 124 119 12 0 87 -11 166 -25z m-5569 -1 c24 -8 82 -24
129 -35 47 -10 94 -21 105 -24 11 -2 26 -13 33 -25 10 -17 9 -27 -12 -68 -53
-104 -70 -220 -53 -349 9 -60 8 -63 -15 -71 -12 -5 -87 -12 -166 -15 -168 -6
-156 -14 -172 122 -16 145 14 330 71 444 22 42 22 42 80 21z m3279 -73 c0 -6
-23 -40 -52 -78 -239 -314 -294 -383 -309 -383 -11 0 12 58 84 214 31 66 54
123 51 127 -2 4 -23 5 -47 2 -38 -5 -41 -4 -27 10 17 18 256 117 283 117 9 0
17 -4 17 -9z m5644 -95 c66 -29 138 -59 160 -66 37 -12 38 -14 33 -50 -8 -62
-72 -206 -133 -297 -60 -90 -194 -233 -219 -233 -8 0 -58 34 -112 76 -160 123
-160 122 -168 181 l-7 53 62 67 c62 68 118 168 140 250 10 39 15 44 58 57 26
8 51 15 56 15 4 1 63 -23 130 -53z m-1426 -186 c24 -36 58 -80 75 -98 46 -49
146 -118 211 -147 48 -21 56 -29 57 -52 2 -48 0 -52 -82 -156 -44 -56 -91
-115 -104 -132 l-23 -30 -74 37 c-102 53 -237 157 -305 236 -71 84 -133 180
-127 195 3 7 28 26 57 44 29 17 93 63 142 102 53 42 98 70 109 69 11 -2 39
-31 64 -68z m-5903 -164 l110 -46 0 -43 c-2 -107 -178 -376 -295 -450 -25 -16
-27 -15 -101 46 -41 34 -90 73 -108 87 -25 19 -34 35 -38 67 -5 39 -2 47 30
83 59 64 106 142 132 216 19 54 30 72 52 81 44 20 99 10 218 -41z m6837 -81
c26 -18 40 -37 47 -63 5 -20 22 -82 37 -137 43 -161 44 -151 -12 -176 -27 -11
-92 -33 -144 -47 -87 -24 -110 -27 -282 -27 -138 0 -190 3 -200 13 -9 9 -12
54 -9 175 2 156 3 163 27 187 23 23 29 25 117 22 104 -4 204 14 293 51 76 32
82 32 126 2z m-8156 -75 c58 -89 137 -159 230 -205 82 -41 95 -61 67 -104 -45
-69 -157 -211 -167 -211 -20 1 -134 64 -196 109 -97 71 -250 247 -250 288 0 6
35 36 78 66 42 30 97 71 122 91 25 20 51 36 57 36 7 0 33 -32 59 -70z m843
-220 c17 -15 33 -53 57 -138 18 -64 33 -125 34 -134 0 -22 -61 -49 -177 -79
-71 -19 -115 -24 -228 -24 -77 0 -152 3 -167 8 l-27 7 0 135 c1 118 3 137 20
159 19 24 24 25 92 20 87 -8 191 8 267 40 69 30 99 31 129 6z"/>
</g>
</svg>
